<?xml version="1.0" encoding="utf-8"?>
<!-- Generator: Adobe Illustrator 15.0.2, SVG Export Plug-In . SVG Version: 6.00 Build 0)  -->
<!DOCTYPE svg PUBLIC "-//W3C//DTD SVG 1.1//EN" "http://www.w3.org/Graphics/SVG/1.1/DTD/svg11.dtd">
<svg version="1.1" id="bigplay-gradient.fw-Page_x25_201"
	 xmlns="http://www.w3.org/2000/svg" xmlns:xlink="http://www.w3.org/1999/xlink" x="0px" y="0px" width="100px" height="200px"
	 viewBox="0 0 100 200" enable-background="new 0 0 100 200" xml:space="preserve">
<path fill="none" d="z"/>
<g id="Background">
</g>
<path fill="none" d="z"/>
<g>
	<path fill="#FFFFFF" d="M37.467,37.001c0-4.257,2.965-5.996,6.603-3.867l24.34,14.24c3.639,2.129,3.639,5.604,0,7.732l-24.34,14.24
		c-3.638,2.118-6.603,0.38-6.603-3.867V37.001z"/>
	<path fill-rule="evenodd" clip-rule="evenodd" fill="#FFFFFF" d="M10.303,50.698C10.303,28.497,28.299,10.5,50.5,10.5
		c22.201,0,40.197,17.997,40.197,40.198c0,22.2-17.996,40.197-40.197,40.197C28.299,90.896,10.303,72.898,10.303,50.698z
		 M14.647,50.698c0-19.8,16.053-35.854,35.853-35.854c19.801,0,35.853,16.053,35.853,35.854c0,19.8-16.052,35.853-35.853,35.853
		C30.7,86.551,14.647,70.498,14.647,50.698z"/>
</g>
<g>
	<path fill="#0065CF" d="M36.967,136.61c0-4.247,2.965-5.984,6.603-3.866l24.34,14.236c3.639,2.131,3.639,5.604,0,7.732
		l-24.34,14.239c-3.638,2.131-6.603,0.391-6.603-3.865V136.61z"/>
	<path fill-rule="evenodd" clip-rule="evenodd" fill="#0065CF" d="M9.804,150.306c0-22.2,17.996-40.197,40.196-40.197
		s40.197,17.997,40.197,40.197c0,22.198-17.997,40.195-40.197,40.195S9.804,172.504,9.804,150.306z M14.148,150.306
		c0-19.801,16.052-35.853,35.852-35.853s35.852,16.052,35.852,35.853c0,19.799-16.052,35.852-35.852,35.852
		S14.148,170.104,14.148,150.306z"/>
</g>
</svg>
